<?xml version="1.0" standalone="no"?><!DOCTYPE svg PUBLIC "-//W3C//DTD SVG 1.1//EN" "http://www.w3.org/Graphics/SVG/1.1/DTD/svg11.dtd"><svg t="1773917797619" class="icon" viewBox="0 0 1024 1024" version="1.1" xmlns="http://www.w3.org/2000/svg" p-id="8865" xmlns:xlink="http://www.w3.org/1999/xlink" width="200" height="200"><path d="M512.6144 54.3232a64 64 0 0 1 30.464 120.32l-0.0512 31.0784c104.7552 4.5568 200.704 25.6 255.0784 54.8864 73.6256 39.5776 110.8992 115.5072 122.5728 241.8688l4.1984-0.1536c35.328 0 64 28.672 64 64v64c0 35.328-28.672 64-64 64l-4.9664-0.2048c-12.1344 106.2912-46.592 184.4224-99.9936 216.3712-80.2304 43.8272-156.5696 61.952-311.1936 62.3104-154.5728-0.3072-230.7072-18.5856-312.8832-63.488-51.968-31.0784-86.016-109.1584-98.0992-215.2448l-4.864 0.256c-35.328 0-64-28.672-64-64v-64c0-35.328 28.672-64 64-64l4.096 0.1536c11.776-126.3616 48.9984-202.3424 122.6752-241.92 54.9888-29.4912 152.6272-50.7904 259.328-54.9888v-32.768a64 64 0 0 1 33.6384-118.4768zM380.928 474.8288c-21.248 0-38.4 14.336-38.4 32v128c0 17.664 17.152 32 38.4 32 21.1968 0 38.4-14.336 38.4-32v-128c0-17.664-17.2032-32-38.4-32z m256 0c-21.248 0-38.4 14.336-38.4 32v128c0 17.664 17.152 32 38.4 32 21.1968 0 38.4-14.336 38.4-32v-128c0-17.664-17.2032-32-38.4-32z" p-id="8866"></path></svg>