<?xml version="1.0" standalone="no"?><!DOCTYPE svg PUBLIC "-//W3C//DTD SVG 1.1//EN" "http://www.w3.org/Graphics/SVG/1.1/DTD/svg11.dtd"><svg t="1778320119111" class="icon" viewBox="0 0 1024 1024" version="1.1" xmlns="http://www.w3.org/2000/svg" p-id="8080" xmlns:xlink="http://www.w3.org/1999/xlink" width="200" height="200"><path d="M568.65 438.94L529 324.18q-32.64 0.56-71 0.55-22 0-69.92-0.55-11.7 24.78-18.23 38l-15 30-140.74 268-22.6 39.63q46-0.55 66.74-0.55 11.43 0 62.1 0.55 25.24-58.34 48.9-106.81h137q22.53 61.37 34.49 106.78 44.4-0.55 67.28-0.55 10.08 0 57.2 0.55l-15.78-40.18zM402.14 513l19.57-40.66q12.5-25.82 30.45-66.2 3 9.9 34.49 106.86zM774 324.73q-16.07 0-63.72-0.55l0.27 35.5q0 119.16-15.68 340.14 50.58-0.55 66.9-0.55l55.75 0.55q0-47.34 1.64-114.35t5.47-144.06q3-55.31 7.92-117.23-51.21 0.56-58.55 0.55z" p-id="8081"></path></svg>