<?xml version="1.0" standalone="no"?><!DOCTYPE svg PUBLIC "-//W3C//DTD SVG 1.1//EN" "http://www.w3.org/Graphics/SVG/1.1/DTD/svg11.dtd"><svg t="1774598260467" class="icon" viewBox="0 0 1024 1024" version="1.1" xmlns="http://www.w3.org/2000/svg" p-id="4614" xmlns:xlink="http://www.w3.org/1999/xlink" width="200" height="200"><path d="M512 161.6l341.6 313.6c-3.2 2.4-5.6 4.8-8.8 7.2-13.6 13.6-20.8 32-20.8 51.2V832c0 7.2-5.6 13.6-13.6 13.6H213.6c-7.2 0-13.6-5.6-13.6-13.6V533.6c0-24-12-45.6-29.6-58.4L512 161.6m0-76c-14.4 0-28.8 5.6-40 16L64.8 474.4c-7.2 6.4-11.2 15.2-11.2 24.8 0 19.2 15.2 34.4 34.4 34.4h40V832c0 47.2 38.4 85.6 85.6 85.6h597.6c47.2 0 85.6-38.4 85.6-85.6V533.6h40c9.6 0 18.4-4 24.8-11.2 12.8-13.6 12-35.2-2.4-48L552 101.6c-11.2-11.2-25.6-16-40-16z" p-id="4615"></path><path d="M701.6 531.2c0 9.6-2.4 16.8-7.2 20.8-2.4 2.4-5.6 3.2-10.4 4-4.8 0-9.6 0-14.4-1.6-8-1.6-16-3.2-25.6-5.6s-18.4-4-26.4-6.4-16-4-22.4-6.4c-6.4-1.6-10.4-3.2-12-4-4.8-2.4-7.2-5.6-6.4-9.6 0.8-4 2.4-7.2 4.8-9.6 0.8-0.8 4-3.2 8.8-6.4 4.8-4 10.4-8.8 17.6-14.4-12-13.6-26.4-24.8-43.2-32.8-16.8-8-34.4-12-54.4-12-18.4 0-35.2 3.2-51.2 10.4s-29.6 16-41.6 28-20.8 25.6-28 41.6c-6.4 16-10.4 32.8-10.4 51.2 0 17.6 3.2 34.4 10.4 50.4 6.4 16 16 29.6 28 41.6s25.6 20.8 41.6 28c16 6.4 32.8 10.4 51.2 10.4 15.2 0 28.8-2.4 42.4-7.2s25.6-11.2 36.8-20c11.2-8.8 20.8-18.4 28.8-30.4s13.6-24 17.6-38.4c2.4-6.4 5.6-12 11.2-16s12-6.4 19.2-6.4c8.8 0 16.8 3.2 22.4 9.6s9.6 13.6 9.6 22.4c0 4-0.8 8-2.4 12-6.4 20-15.2 38.4-26.4 55.2-12 16.8-25.6 31.2-42.4 44-16 12-34.4 21.6-54.4 28.8s-40.8 10.4-62.4 10.4c-26.4 0-52-4.8-75.2-15.2s-44-24-61.6-41.6-31.2-37.6-41.6-61.6c-10.4-23.2-15.2-48.8-15.2-75.2s4.8-52 15.2-75.2c10.4-23.2 24-44 41.6-61.6s37.6-31.2 61.6-41.6c23.2-10.4 48.8-15.2 75.2-15.2 29.6 0 56.8 6.4 82.4 18.4 25.6 12 47.2 28.8 64.8 49.6 6.4-4.8 12-8.8 16.8-12.8s7.2-5.6 8.8-6.4c1.6-1.6 3.2-2.4 5.6-3.2s4-0.8 5.6 0 3.2 2.4 4.8 4.8c1.6 2.4 2.4 5.6 3.2 10.4 0 2.4 0.8 7.2 0.8 12.8 0 6.4 0.8 13.6 0.8 21.6 0 8 0.8 16.8 0.8 25.6-2.4 8.8-2.4 16.8-3.2 24.8z" p-id="4616"></path></svg>