<?xml version="1.0" standalone="no"?><!DOCTYPE svg PUBLIC "-//W3C//DTD SVG 1.1//EN" "http://www.w3.org/Graphics/SVG/1.1/DTD/svg11.dtd"><svg t="1776074449179" class="icon" viewBox="0 0 1024 1024" version="1.1" xmlns="http://www.w3.org/2000/svg" p-id="1472" xmlns:xlink="http://www.w3.org/1999/xlink" width="200" height="200"><path d="M207.644444 284.444444l258.844445-159.288888c31.288889-17.066667 68.266667-8.533333 88.177778 19.911111 5.688889 11.377778 8.533333 22.755556 8.533333 34.133333v665.6c0 34.133333-28.444444 62.577778-62.577778 62.577778-11.377778 0-22.755556-2.844444-34.133333-8.533334L207.644444 739.555556H91.022222C42.666667 739.555556 2.844444 699.733333 2.844444 651.377778v-275.911111c0-48.355556 39.822222-88.177778 88.177778-88.177778h116.622222z m31.288889 71.111112c-5.688889 2.844444-14.222222 5.688889-19.911111 5.688888H91.022222c-5.688889 0-11.377778 5.688889-11.377778 11.377778v275.911111c0 5.688889 5.688889 11.377778 11.377778 11.377778h128c8.533333 0 14.222222 2.844444 19.911111 5.688889l247.466667 153.6V201.955556l-247.466667 153.6z m620.088889 537.6c-14.222222 14.222222-39.822222 14.222222-54.044444 0-5.688889-8.533333-11.377778-17.066667-11.377778-25.6 0-11.377778 5.688889-19.911111 11.377778-25.6 187.733333-179.2 187.733333-472.177778 0-651.377778-8.533333-11.377778-11.377778-19.911111-11.377778-31.288889 0-11.377778 2.844444-19.911111 11.377778-25.6 14.222222-14.222222 39.822222-14.222222 54.044444 0 219.022222 207.644444 219.022222 548.977778 0 759.466667z m-128-150.755556c-14.222222 14.222222-39.822222 14.222222-54.044444-2.844444-5.688889-8.533333-11.377778-17.066667-11.377778-28.444445s5.688889-19.911111 11.377778-25.6c102.4-96.711111 102.4-253.155556 0-347.022222-8.533333-5.688889-11.377778-17.066667-11.377778-25.6 0-11.377778 2.844444-19.911111 11.377778-28.444445 14.222222-14.222222 39.822222-17.066667 54.044444-2.844444 133.688889 128 133.688889 332.8 0 460.8z m0 0" p-id="1473"></path></svg>