<?xml version="1.0" standalone="no"?><!DOCTYPE svg PUBLIC "-//W3C//DTD SVG 1.1//EN" "http://www.w3.org/Graphics/SVG/1.1/DTD/svg11.dtd"><svg t="1774942962073" class="icon" viewBox="0 0 1024 1024" version="1.1" xmlns="http://www.w3.org/2000/svg" p-id="7459" xmlns:xlink="http://www.w3.org/1999/xlink" width="200" height="200"><defs><!-- 情报：与2D情报点名称色一致 --><filter id="intel-glow" x="-90%" y="-90%" width="280%" height="280%"><feDropShadow dx="0" dy="0" stdDeviation="12" flood-color="#FF5AAE" flood-opacity="0.9"/></filter></defs><g filter="url(#intel-glow)"><path d="M239.046 639.693c2.373 3.51 2.373 3.51 0 0l4.746 7.02c7.12 10.528 16.512 9.292 29.412 5.683 10.53-7.12 6.92-20.02 6.92-20.02-13.2-42.215-13.5-88.039-5.543-129.215 0 0-0.1-15.275-2.473-18.784-7.119-10.529-18.884-12.802-29.411-5.684-7.02 4.747-8.156 10.628-9.293 16.511-9.094 47.06-6.421 96.393 5.642 144.49zM487.79 426.786s4.236 4.237 0 0c16.946 0 29.655-12.71 29.655-29.655 0-16.946-12.71-29.656-29.655-29.656-97.44 0-173.695 76.257-173.695 173.695A173.129 173.129 0 0 0 487.79 714.866c97.438 0 173.695-76.256 173.695-173.696v-3.73c0-16.621-13.453-30.364-30.073-30.158-16.737 0.206-29.237 12.846-29.237 29.652 0 71.846-49.379 123.735-114.385 123.446-60.687-0.269-114.386-43.148-114.386-114.973 0-72.02 46.6-114.384 114.385-118.62z" p-id="7460" fill="#000000"></path><path d="M797.051 240.38l-12.71-160.986-173.695 160.987v144.04l-141.51 126.614c-10.576 9.464-11.031 25.87-0.996 35.907l4.862 4.862c8.26 8.26 21.568 8.526 30.152 0.602l149.857-138.33h144.04l114.385-114.384 46.602-46.602-160.987-12.71z m-29.655 131.332h-97.44V270.036l67.784-72.02v97.44h101.676l-72.02 76.256z m-467.813 58.585c0.923-5.478 0.494-11.056-2.07-14.237-7.978-9.893-18.884-12.802-29.412-5.684-3.51 2.374-8.985 12.21-12.801 18.885-6.253 10.93-1.037 21.156-1.037 21.156 7.12 10.53 18.077 11.43 29.412 5.684 5.536-2.808 15.131-21.194 15.908-25.804z m-27.854 199.84zM375.342 958.071H601.61l-113.135-198.11z" p-id="7461" fill="#000000"></path><path d="M387.264 838.062C266.284 797.557 187 686.822 187 549.643c0-182.168 127.095-309.262 305.026-309.262 29.655 0 33.892 0 55.074 4.236h4.237c16.946 0 25.419-12.71 25.419-25.419s-8.473-25.419-21.183-25.419c-29.655-12.71-29.655-12.71-63.547-12.71-199.114 0-364.337 160.986-364.337 364.338 0 152.485 94.414 285.092 229.967 338.839l29.61-46.184zM847.89 477.624c0-16.946-12.71-29.655-29.655-29.655s-29.656 12.71-29.656 29.655c0 4.237 0 8.473 4.237 12.71 0 12.709 4.236 29.655 4.236 59.31 0 142.184-83.866 251.895-206.192 290.245l29.773 46.438c136.902-51.714 235.73-183.646 235.73-340.918 0-29.657-4.237-46.602-8.473-67.785z" p-id="7462" fill="#000000"></path></g></svg>