<?xml version="1.0" standalone="no"?><!DOCTYPE svg PUBLIC "-//W3C//DTD SVG 1.1//EN" "http://www.w3.org/Graphics/SVG/1.1/DTD/svg11.dtd"><svg t="1778721061475" class="icon" viewBox="0 0 1024 1024" version="1.1" xmlns="http://www.w3.org/2000/svg" p-id="6086" xmlns:xlink="http://www.w3.org/1999/xlink" width="200" height="200"><path d="M831.488 102.4a107.7248 107.7248 0 0 1 107.6736 107.4176V374.784a40.2432 40.2432 0 0 1-40.3456 40.2944 40.448 40.448 0 0 1-40.3968-40.2944V209.8176a26.8288 26.8288 0 0 0-26.88-26.8288H158.8224a26.9312 26.9312 0 0 0-26.88 26.8288v498.8416c0 14.7456 12.0832 26.8288 26.88 26.8288h107.6224a74.0864 74.0864 0 0 1 74.0352 73.8816l-0.1024 5.6832 145.408-75.0592a40.448 40.448 0 0 1 12.1344-3.9936l6.5024-0.512h90.7776a40.448 40.448 0 0 1 40.3968 40.2944 40.2432 40.2432 0 0 1-40.3968 40.2944l-81.0496-0.0512-195.4816 101.0176a40.448 40.448 0 0 1-58.5216-29.8496l-0.4096-5.9392-0.0512-65.2288h-100.864A107.7248 107.7248 0 0 1 51.712 718.336L51.2 708.7104V209.8176A107.3152 107.3152 0 0 1 158.8224 102.4h672.7168z m-33.5872 369.3056a40.448 40.448 0 0 1 40.3456 40.2944v93.9008l94.208 0.1024a40.3968 40.3968 0 0 1 40.3456 40.2944 40.2432 40.2432 0 0 1-40.3456 40.2432h-94.208v94.0032a40.2432 40.2432 0 0 1-40.3456 40.2944 40.448 40.448 0 0 1-40.3456-40.2944v-94.0544l-94.208 0.0512a40.3968 40.3968 0 0 1-40.3456-40.2944 40.2432 40.2432 0 0 1 40.3456-40.2432l94.208-0.1024V512a40.2432 40.2432 0 0 1 40.3456-40.2944z" p-id="6087"></path></svg>