<?xml version="1.0" standalone="no"?><!DOCTYPE svg PUBLIC "-//W3C//DTD SVG 1.1//EN" "http://www.w3.org/Graphics/SVG/1.1/DTD/svg11.dtd"><svg t="1778721002940" class="icon" viewBox="0 0 1024 1024" version="1.1" xmlns="http://www.w3.org/2000/svg" p-id="3455" xmlns:xlink="http://www.w3.org/1999/xlink" width="200" height="200"><path d="M732.7744 835.0208h-261.12c-123.648 0-223.8976-101.7344-223.8976-227.2256S348.16 380.5696 471.552 380.5696H609.28a1.28 1.28 0 0 1 1.28 1.28v103.8848a1.28 1.28 0 0 1-1.28 1.28h-96.768c-82.432 0-149.2992 37.12-149.2992 120.7808S430.08 718.336 512.512 718.336h168.96c82.432 0 149.2992-26.88 149.2992-110.5408 0-47.0528-31.5392-89.0368-64.8704-116.8384a1.2288 1.2288 0 0 1-0.4096-1.2288l78.2848-76.8a1.28 1.28 0 0 1 1.536-0.9728 0.5632 0.5632 0 0 1 0.3584 0 227.4304 227.4304 0 0 1 110.8992 195.8912c0.1536 125.44-100.096 227.1744-223.7952 227.1744z m33.6384-376.3712l2.8672 1.1264a1.28 1.28 0 0 1 0.8192 1.1776v0.768l-3.84-2.2016z m0 0.8704c-19.0464 105.8304-110.2336 186.112-220.16 186.112H398.2336a1.28 1.28 0 0 1-1.28-1.28v-103.8336a1.28 1.28 0 0 1 1.28-1.2288h107.0592c82.432 0 149.2992-37.1712 149.2992-120.832s-66.8672-120.7808-149.2992-120.7808h-179.2c-82.432 0-149.2992 37.1712-149.2992 120.7808 0 47.0528 31.7952 88.5248 64.9728 116.3264a1.2288 1.2288 0 0 1 0.4096 1.2288L174.08 613.5808a1.28 1.28 0 0 1-1.4848 0.9728h-0.4096a227.584 227.584 0 0 1-111.104-196.096c0-125.4912 100.2496-227.2256 223.8976-227.2256h261.12c110.3872 0 201.9328 81.2544 220.16 187.8528a1.28 1.28 0 0 1-1.024 1.4848h-3.4304a1.28 1.28 0 0 0-1.28 1.28 1.2288 1.2288 0 0 0 1.1776 1.2288l4.2496 0.3584a1.2288 1.2288 0 0 1 1.1264 1.0752 231.7824 231.7824 0 0 1 2.7648 33.9456 234.3936 234.3936 0 0 1-3.3792 38.656 1.3312 1.3312 0 0 1-1.4848 1.024h-0.256l-4.1984-1.792z m3.84-78.9504v2.0992a1.28 1.28 0 0 1-1.6384 1.1776L768 384a1.28 1.28 0 0 1-0.9216-1.0752v-0.6656a1.3312 1.3312 0 0 1 1.1264-1.4336h1.9968z" fill="#4C4C4C" p-id="3456"></path></svg>